<mxfile host="app.diagrams.net" agent="Mozilla/5.0 (Macintosh; Intel Mac OS X 10_15_7) AppleWebKit/537.36 (KHTML, like Gecko) Chrome/130.0.0.0 Safari/537.36" version="26.0.6">
  <diagram name="Seite-1" id="MQDj1qhvXethNwqq28II">
    <mxGraphModel dx="1434" dy="915" grid="1" gridSize="10" guides="1" tooltips="1" connect="1" arrows="1" fold="1" page="1" pageScale="1" pageWidth="827" pageHeight="1169" math="0" shadow="0">
      <root>
        <mxCell id="0" />
        <mxCell id="1" parent="0" />
        <mxCell id="P-xZBWmslQts0KI-_4hQ-1" value="Admin" style="shape=umlActor;verticalLabelPosition=bottom;verticalAlign=top;html=1;outlineConnect=0;" vertex="1" parent="1">
          <mxGeometry x="80" y="280" width="30" height="60" as="geometry" />
        </mxCell>
        <mxCell id="P-xZBWmslQts0KI-_4hQ-2" value="Consumer&lt;div&gt;Connector&lt;/div&gt;" style="shape=module;align=left;spacingLeft=20;align=center;verticalAlign=top;whiteSpace=wrap;html=1;" vertex="1" parent="1">
          <mxGeometry x="270" y="270" width="100" height="50" as="geometry" />
        </mxCell>
        <mxCell id="P-xZBWmslQts0KI-_4hQ-3" value="Provider&lt;div&gt;Connector&lt;/div&gt;" style="shape=module;align=left;spacingLeft=20;align=center;verticalAlign=top;whiteSpace=wrap;html=1;" vertex="1" parent="1">
          <mxGeometry x="590" y="270" width="100" height="50" as="geometry" />
        </mxCell>
        <mxCell id="P-xZBWmslQts0KI-_4hQ-5" value="" style="rounded=0;orthogonalLoop=1;jettySize=auto;html=1;endArrow=halfCircle;endFill=0;endSize=6;strokeWidth=1;sketch=0;" edge="1" target="P-xZBWmslQts0KI-_4hQ-7" parent="1">
          <mxGeometry relative="1" as="geometry">
            <mxPoint x="270" y="295" as="sourcePoint" />
          </mxGeometry>
        </mxCell>
        <mxCell id="P-xZBWmslQts0KI-_4hQ-6" value="Management&amp;nbsp;&lt;div&gt;API&lt;/div&gt;&lt;div&gt;Internal network&lt;/div&gt;" style="rounded=0;orthogonalLoop=1;jettySize=auto;html=1;endArrow=oval;endFill=0;sketch=0;sourcePerimeterSpacing=0;targetPerimeterSpacing=0;endSize=10;exitX=1;exitY=0.3333333333333333;exitDx=0;exitDy=0;exitPerimeter=0;" edge="1" target="P-xZBWmslQts0KI-_4hQ-7" parent="1" source="P-xZBWmslQts0KI-_4hQ-1">
          <mxGeometry relative="1" as="geometry">
            <mxPoint x="230" y="295" as="sourcePoint" />
          </mxGeometry>
        </mxCell>
        <mxCell id="P-xZBWmslQts0KI-_4hQ-7" value="" style="ellipse;whiteSpace=wrap;html=1;align=center;aspect=fixed;fillColor=none;strokeColor=none;resizable=0;perimeter=centerPerimeter;rotatable=0;allowArrows=0;points=[];outlineConnect=1;" vertex="1" parent="1">
          <mxGeometry x="245" y="290" width="10" height="10" as="geometry" />
        </mxCell>
        <mxCell id="P-xZBWmslQts0KI-_4hQ-9" value="" style="rounded=0;orthogonalLoop=1;jettySize=auto;html=1;endArrow=halfCircle;endFill=0;endSize=6;strokeWidth=1;sketch=0;exitX=0.5;exitY=0;exitDx=0;exitDy=0;" edge="1" parent="1" source="P-xZBWmslQts0KI-_4hQ-3">
          <mxGeometry relative="1" as="geometry">
            <mxPoint x="500" y="295" as="sourcePoint" />
            <mxPoint x="470" y="220" as="targetPoint" />
            <Array as="points">
              <mxPoint x="640" y="220" />
            </Array>
          </mxGeometry>
        </mxCell>
        <mxCell id="P-xZBWmslQts0KI-_4hQ-10" value="DSP Protocol&lt;div&gt;Dataspace Network&lt;br&gt;&lt;div&gt;&lt;br&gt;&lt;/div&gt;&lt;/div&gt;" style="rounded=0;orthogonalLoop=1;jettySize=auto;html=1;endArrow=oval;endFill=0;sketch=0;sourcePerimeterSpacing=0;targetPerimeterSpacing=0;endSize=10;exitX=0.5;exitY=0;exitDx=0;exitDy=0;" edge="1" parent="1" source="P-xZBWmslQts0KI-_4hQ-2">
          <mxGeometry x="1" y="32" relative="1" as="geometry">
            <mxPoint x="460" y="295" as="sourcePoint" />
            <mxPoint x="460" y="220" as="targetPoint" />
            <Array as="points">
              <mxPoint x="320" y="220" />
            </Array>
            <mxPoint x="10" y="2" as="offset" />
          </mxGeometry>
        </mxCell>
        <mxCell id="P-xZBWmslQts0KI-_4hQ-11" value="" style="ellipse;whiteSpace=wrap;html=1;align=center;aspect=fixed;fillColor=none;strokeColor=none;resizable=0;perimeter=centerPerimeter;rotatable=0;allowArrows=0;points=[];outlineConnect=1;" vertex="1" parent="1">
          <mxGeometry x="475" y="290" width="10" height="10" as="geometry" />
        </mxCell>
        <mxCell id="P-xZBWmslQts0KI-_4hQ-12" style="edgeStyle=orthogonalEdgeStyle;rounded=0;orthogonalLoop=1;jettySize=auto;html=1;exitX=0.5;exitY=0;exitDx=0;exitDy=0;entryX=0.25;entryY=1;entryDx=0;entryDy=0;startArrow=classic;startFill=1;exitPerimeter=0;endArrow=none;endFill=0;" edge="1" parent="1" source="P-xZBWmslQts0KI-_4hQ-14" target="P-xZBWmslQts0KI-_4hQ-3">
          <mxGeometry relative="1" as="geometry">
            <Array as="points">
              <mxPoint x="330" y="350" />
              <mxPoint x="620" y="350" />
              <mxPoint x="620" y="320" />
            </Array>
          </mxGeometry>
        </mxCell>
        <mxCell id="P-xZBWmslQts0KI-_4hQ-13" value="Sink Protocol (S3, Azure Blob, Http)&lt;div&gt;Public N&lt;span style=&quot;background-color: light-dark(#ffffff, var(--ge-dark-color, #121212)); color: light-dark(rgb(0, 0, 0), rgb(255, 255, 255));&quot;&gt;etwork&lt;/span&gt;&lt;/div&gt;&lt;div&gt;&lt;span style=&quot;background-color: light-dark(#ffffff, var(--ge-dark-color, #121212)); color: light-dark(rgb(0, 0, 0), rgb(255, 255, 255));&quot;&gt;write-only token&lt;/span&gt;&lt;/div&gt;" style="edgeLabel;html=1;align=center;verticalAlign=middle;resizable=0;points=[];" vertex="1" connectable="0" parent="P-xZBWmslQts0KI-_4hQ-12">
          <mxGeometry x="-0.1093" y="2" relative="1" as="geometry">
            <mxPoint x="-27" as="offset" />
          </mxGeometry>
        </mxCell>
        <mxCell id="P-xZBWmslQts0KI-_4hQ-14" value="Data Sink&lt;div&gt;&lt;br&gt;&lt;/div&gt;" style="shape=cylinder3;whiteSpace=wrap;html=1;boundedLbl=1;backgroundOutline=1;size=15;" vertex="1" parent="1">
          <mxGeometry x="300" y="410" width="60" height="80" as="geometry" />
        </mxCell>
        <mxCell id="P-xZBWmslQts0KI-_4hQ-15" value="Data Source" style="shape=cylinder3;whiteSpace=wrap;html=1;boundedLbl=1;backgroundOutline=1;size=15;" vertex="1" parent="1">
          <mxGeometry x="645" y="410" width="60" height="80" as="geometry" />
        </mxCell>
        <mxCell id="P-xZBWmslQts0KI-_4hQ-16" value="Source Protocol (S3, Azure Blob, Http)&lt;div&gt;Internal N&lt;span style=&quot;background-color: light-dark(#ffffff, var(--ge-dark-color, #121212)); color: light-dark(rgb(0, 0, 0), rgb(255, 255, 255));&quot;&gt;etwork&lt;/span&gt;&lt;/div&gt;" style="edgeStyle=orthogonalEdgeStyle;rounded=0;orthogonalLoop=1;jettySize=auto;html=1;entryX=0.333;entryY=0.025;entryDx=0;entryDy=0;entryPerimeter=0;startArrow=open;startFill=0;endArrow=none;endFill=0;exitX=0.75;exitY=1;exitDx=0;exitDy=0;" edge="1" parent="1" source="P-xZBWmslQts0KI-_4hQ-3" target="P-xZBWmslQts0KI-_4hQ-15">
          <mxGeometry x="0.5217" y="30" relative="1" as="geometry">
            <mxPoint as="offset" />
          </mxGeometry>
        </mxCell>
        <mxCell id="P-xZBWmslQts0KI-_4hQ-18" value="Source Protocol (S3, Azure Blob, Http)&lt;div&gt;Internal Network&lt;/div&gt;" style="edgeStyle=orthogonalEdgeStyle;rounded=0;orthogonalLoop=1;jettySize=auto;html=1;entryX=0;entryY=0;entryDx=0;entryDy=52.5;entryPerimeter=0;" edge="1" parent="1" source="P-xZBWmslQts0KI-_4hQ-1" target="P-xZBWmslQts0KI-_4hQ-14">
          <mxGeometry x="0.2061" y="3" relative="1" as="geometry">
            <Array as="points">
              <mxPoint x="95" y="463" />
            </Array>
            <mxPoint x="1" y="1" as="offset" />
          </mxGeometry>
        </mxCell>
      </root>
    </mxGraphModel>
  </diagram>
</mxfile>
